<svg width="24" height="24" viewBox="0 0 24 24" fill="none" xmlns="http://www.w3.org/2000/svg">
<g clip-path="url(#clip0)">
<path d="M4.29009 2.63733H4.28442C3.41634 2.65003 2.71031 3.36694 2.71031 4.23544V6.51919H0.35325C0.158156 6.51919 0 6.67734 0 6.87244C0 7.06753 0.158156 7.22569 0.35325 7.22569H2.71036V9.08297H0.35325C0.158156 9.08297 0 9.24113 0 9.43622C0 9.63131 0.158156 9.78947 0.35325 9.78947H2.71036V11.6467H0.35325C0.158156 11.6468 0 11.8049 0 12C0 12.1951 0.158156 12.3533 0.35325 12.3533H2.71036V14.2105H0.35325C0.158156 14.2105 0 14.3686 0 14.5637C0 14.7588 0.158156 14.917 0.35325 14.917H2.71036V16.7743H0.35325C0.158156 16.7743 0 16.9324 0 17.1275C0 17.3226 0.158156 17.4808 0.35325 17.4808H2.71036V18.6887C2.71036 18.8837 2.86861 19.042 3.06361 19.042C3.25861 19.042 3.41686 18.8837 3.41686 18.6887V4.23549C3.41686 3.7508 3.81061 3.35095 4.2953 3.34341C4.4903 3.34059 4.6462 3.18042 4.64292 2.98495C4.64006 2.79183 4.48275 2.63733 4.29009 2.63733Z" fill="#F8F8F8"/>
<path d="M19.2266 20.5102H4.30891C3.94483 20.5102 3.62079 20.2926 3.48279 19.9558C3.40882 19.775 3.20299 19.6887 3.02215 19.7627C2.84125 19.8366 2.7551 20.0429 2.82902 20.2233C3.07582 20.8267 3.6566 21.2166 4.30891 21.2166H6.51921V23.6467C6.51921 23.8418 6.67736 24 6.87246 24C7.06755 24 7.22571 23.8418 7.22571 23.6467V21.2166H9.08299V23.6467C9.08299 23.8418 9.24115 24 9.43624 24C9.63133 24 9.78949 23.8418 9.78949 23.6467V21.2166H11.6467V23.6467C11.6467 23.8418 11.8049 24 12 24C12.1951 24 12.3532 23.8418 12.3532 23.6467V21.2166H14.2105V23.6467C14.2105 23.8418 14.3686 24 14.5637 24C14.7588 24 14.917 23.8418 14.917 23.6467V21.2166H16.7742V23.6467C16.7742 23.8418 16.9324 24 17.1275 24C17.3226 24 17.4807 23.8418 17.4807 23.6467V21.2166H19.2266C19.4216 21.2166 19.5798 21.0584 19.5798 20.8634C19.5798 20.668 19.4216 20.5102 19.2266 20.5102Z" fill="#F8F8F8"/>
<path d="M16.791 6.00647H7.20894C6.58625 6.00647 6.07996 6.51281 6.07996 7.13545V16.7181C6.07996 17.3408 6.5863 17.847 7.20894 17.847H16.7911C17.4138 17.847 17.9201 17.3407 17.9201 16.7181V7.13545C17.9201 6.51277 17.4137 6.00647 16.791 6.00647ZM6.78641 7.13545C6.78641 6.9023 6.97574 6.71297 7.20889 6.71297H14.516V10.4024C13.8774 10.5404 13.3729 11.0448 13.235 11.6835H10.6317V9.87202C11.2991 9.74156 11.8041 9.1523 11.8041 8.4472C11.8041 7.64695 11.1526 6.99558 10.352 6.99558C9.64686 6.99558 9.05769 7.50047 8.92714 8.16741H6.78641V7.13545ZM14.8693 11.0712C15.4016 11.0712 15.8345 11.5045 15.8345 12.0368C15.8345 12.569 15.4016 13.0019 14.8693 13.0019C14.3333 13.0019 13.9038 12.5648 13.9038 12.0368C13.9038 11.5078 14.3345 11.0712 14.8693 11.0712ZM10.352 9.1928C9.94344 9.1928 9.60636 8.86055 9.60636 8.4472C9.60636 8.03649 9.94077 7.70208 10.352 7.70208C10.7631 7.70208 11.0976 8.03649 11.0976 8.4472C11.0976 8.86195 10.7599 9.1928 10.352 9.1928ZM8.82636 14.9664C8.62147 14.8515 8.483 14.6315 8.483 14.3805C8.483 14.0098 8.78493 13.7083 9.15561 13.7083C9.5263 13.7083 9.82775 14.0098 9.82775 14.3805C9.82771 14.8941 9.27214 15.2184 8.82636 14.9664ZM11.6834 17.1405H9.31339V15.7501C9.99964 15.672 10.5343 15.0874 10.5343 14.3805C10.5343 13.6202 9.91583 13.0018 9.15561 13.0018C8.39493 13.0018 7.7765 13.6202 7.7765 14.3805C7.7765 14.9457 8.11846 15.4332 8.60689 15.6456V17.1405H7.20894C6.97578 17.1405 6.78646 16.9508 6.78646 16.7181V8.87391H8.96389C8.96689 8.87878 9.15674 9.59911 9.92521 9.83527V12.0368C9.92521 12.2318 10.0835 12.39 10.2785 12.39H11.6834V17.1405ZM17.2136 16.7181C17.2136 16.9508 17.0242 17.1405 16.7911 17.1405H12.3899V15.6129H17.2136V16.7181ZM17.2136 14.9064H12.3899V12.39H13.235C13.3975 13.1427 14.0686 13.7084 14.8693 13.7084C15.7911 13.7084 16.541 12.9585 16.541 12.0368C16.541 11.236 15.9753 10.5649 15.2226 10.4024C15.2226 10.4024 15.2226 10.4024 15.2225 10.4024V6.71297H16.791C17.0242 6.71297 17.2135 6.9023 17.2135 7.13545V14.9064H17.2136Z" fill="#F8F8F8"/>
<path d="M23.6468 9.78952C23.8419 9.78952 24 9.63136 24 9.43627C24 9.24117 23.8419 9.08302 23.6468 9.08302H21.2897V7.22573H23.6468C23.8419 7.22573 24 7.06758 24 6.87248C24 6.67739 23.8419 6.51923 23.6468 6.51923H21.2897V4.23548C21.2897 3.35423 20.5728 2.63691 19.6911 2.63691H17.4808V0.35325C17.4808 0.158156 17.3226 0 17.1275 0C16.9324 0 16.7743 0.158156 16.7743 0.35325V2.63686H14.917V0.35325C14.917 0.158156 14.7589 0 14.5638 0C14.3687 0 14.2105 0.158156 14.2105 0.35325V2.63686H12.3533V0.35325C12.3533 0.158156 12.1951 0 12 0C11.8049 0 11.6468 0.158156 11.6468 0.35325V2.63686H9.78954V0.35325C9.78954 0.158156 9.63138 0 9.43629 0C9.2412 0 9.08304 0.158156 9.08304 0.35325V2.63686H7.22576V0.35325C7.22576 0.158156 7.0676 0 6.87251 0C6.67742 0 6.51926 0.158156 6.51926 0.35325V2.63686H5.70316C5.5077 2.63686 5.34991 2.79511 5.34991 2.99011C5.34991 3.18511 5.5077 3.34336 5.70316 3.34336C7.55365 3.34336 18.2101 3.34336 19.6911 3.34336C20.1833 3.34336 20.5832 3.74372 20.5832 4.23544V19.618C20.5832 19.8644 20.4852 20.0938 20.3067 20.2638C20.1654 20.3985 20.1597 20.6222 20.2945 20.763C20.3642 20.836 20.457 20.8728 20.5502 20.8728C20.6378 20.8728 20.7254 20.8403 20.7942 20.7753C21.1136 20.4705 21.2897 20.0594 21.2897 19.618V17.4808H23.6468C23.8419 17.4808 24.0001 17.3226 24.0001 17.1275C24.0001 16.9324 23.8419 16.7743 23.6468 16.7743H21.2897V14.917H23.6468C23.8419 14.917 24.0001 14.7588 24.0001 14.5637C24.0001 14.3686 23.8419 14.2105 23.6468 14.2105H21.2897V12.3533H23.6468C23.8419 12.3533 24.0001 12.1951 24.0001 12C24.0001 11.8049 23.8419 11.6468 23.6468 11.6468H21.2897V9.78952H23.6468Z" fill="#F8F8F8"/>
</g>
<defs>
<clipPath id="clip0">
<rect width="24" height="24" fill="white"/>
</clipPath>
</defs>
</svg>
