<svg width="24" height="24" viewBox="0 0 24 24" fill="none" xmlns="http://www.w3.org/2000/svg">
<path d="M4.12463 19.5007H6.75001V21C6.75001 21.0007 6.75038 21.0015 6.75038 21.0026C6.75188 22.1141 7.56376 23.037 8.62501 23.2159V23.625C8.62501 23.8324 8.79263 24 9.00001 24H15C15.2074 24 15.375 23.8324 15.375 23.625V23.2159C16.4363 23.0366 17.2481 22.1141 17.2496 21.0026C17.2496 21.0015 17.25 21.0007 17.25 21V19.5007H19.8754C20.9093 19.5007 21.7504 18.6596 21.7504 17.6257V1.875C21.7504 0.841125 20.9093 0 19.8754 0H4.12463C3.09076 0 2.24963 0.841125 2.24963 1.875V17.6257C2.24963 18.6596 3.09076 19.5007 4.12463 19.5007ZM7.50038 21C7.50038 20.9993 7.50001 20.9989 7.50001 20.9981V19.5007H7.87501V21C7.87501 21.0015 7.87576 21.0022 7.87576 21.0037C7.87726 21.4901 8.19076 21.9011 8.62501 22.056V22.4468C7.98001 22.2788 7.50038 21.6968 7.50038 21ZM9.75113 19.5007V21.3746H9.00001C8.99963 21.3746 8.99963 21.3746 8.99926 21.3746C8.79263 21.3743 8.62538 21.2066 8.62538 21C8.62538 20.9993 8.62501 20.9989 8.62501 20.9981V19.5007H9.75113ZM10.8754 19.5007V21.3746H10.5011V19.5007H10.8754ZM12.375 19.5007V21.3746H11.6254V19.5007H12.375ZM13.4993 19.5007V21.3746H13.125V19.5007H13.4993ZM15.375 19.5007V20.9981C15.375 20.9989 15.3746 20.9993 15.3746 21C15.3746 21.2066 15.2074 21.3743 15.0008 21.3746C15.0004 21.3746 15.0004 21.3746 15 21.3746H14.2493V19.5007H15.375ZM9.37501 23.25V22.8769C9.37501 22.8761 9.37538 22.8757 9.37538 22.875C9.37538 22.8743 9.37501 22.8739 9.37501 22.8731V22.1246H14.625V22.8731C14.625 22.8739 14.6246 22.8743 14.6246 22.875C14.6246 22.8757 14.625 22.8761 14.625 22.8769V23.25H9.37501ZM16.5 20.9981C16.5 20.9989 16.4996 20.9993 16.4996 21C16.4996 21.6968 16.02 22.2787 15.375 22.4464V22.0556C15.8093 21.9007 16.1228 21.4897 16.1243 21.0034C16.1243 21.0022 16.125 21.0015 16.125 21V19.5007H16.5V20.9981ZM2.99963 1.875C2.99963 1.25475 3.50438 0.75 4.12463 0.75H19.8754C20.4956 0.75 21.0004 1.25475 21.0004 1.875V17.6257C21.0004 18.246 20.4956 18.7507 19.8754 18.7507H16.8788C16.8773 18.7507 16.8765 18.75 16.875 18.75C16.8735 18.75 16.8728 18.7507 16.8713 18.7507H15.7538C15.7523 18.7507 15.7515 18.75 15.75 18.75C15.7485 18.75 15.7478 18.7507 15.7463 18.7507H8.25376C8.25226 18.7507 8.25151 18.75 8.25001 18.75C8.24851 18.75 8.24776 18.7507 8.24626 18.7507H7.12876C7.12726 18.7507 7.12651 18.75 7.12501 18.75C7.12351 18.75 7.12276 18.7507 7.12126 18.7507H4.12463C3.50438 18.7507 2.99963 18.246 2.99963 17.6257V1.875Z" fill="#F8F8F8"/>
<path d="M4.13021 9.71327C4.12796 10.4051 4.21009 11.1015 4.39384 11.7881C4.56934 12.4429 4.83146 13.0586 5.15621 13.6335C5.16184 13.647 5.17009 13.6575 5.17721 13.6706C5.85971 14.8639 6.84109 15.8648 8.06246 16.5701C9.25909 17.2609 10.6181 17.6261 11.9925 17.6261C13.3788 17.6261 14.718 17.2571 15.8876 16.5923C15.8966 16.5889 15.9041 16.5833 15.9127 16.5791C17.1018 15.8978 18.1143 14.9096 18.8193 13.6883C19.5251 12.4665 19.8588 11.1326 19.8675 9.81339C19.8761 9.76239 19.8757 9.71064 19.8637 9.66114C19.8465 8.33627 19.4966 7.03539 18.8463 5.88039C18.8347 5.84514 18.8156 5.81439 18.7938 5.78477C18.1271 4.63727 17.1671 3.64014 15.9375 2.92989C14.7405 2.23914 13.3815 1.87427 12.0071 1.87427C10.6203 1.87427 9.28121 2.24327 8.11159 2.90814C8.10371 2.91152 8.09696 2.91639 8.08909 2.92014C6.89884 3.60152 5.88559 4.59002 5.17984 5.81252C4.48571 7.01364 4.13584 8.34639 4.12909 9.69752C4.12909 9.70277 4.13059 9.70802 4.13021 9.71327ZM4.90496 10.3556C5.25784 10.4929 5.73034 10.6283 6.22684 10.6283C6.75221 10.6283 7.30384 10.4768 7.76471 10.0159C8.47871 9.30189 9.41059 9.74777 9.76046 9.95927C9.77134 10.08 9.79421 10.1974 9.82384 10.3121C9.04084 10.383 8.04596 10.7644 7.74034 11.9036C7.47671 12.8876 6.23321 13.0826 5.72734 13.1183C5.47121 12.6394 5.26196 12.1313 5.11796 11.5935C5.00809 11.1836 4.94171 10.77 4.90496 10.3556ZM9.84671 5.49077C8.86571 5.22789 8.67259 3.98477 8.63509 3.47852C9.48146 3.02402 10.419 2.73864 11.3955 2.65427C11.1127 3.38064 10.8382 4.61852 11.7348 5.51552C12.4485 6.22952 12.003 7.16139 11.7915 7.51127C11.6707 7.52252 11.553 7.54464 11.4386 7.57427C11.3673 6.79127 10.986 5.79602 9.84671 5.49077ZM15.0243 3.30227C14.4161 3.79014 13.5596 4.72464 13.8881 5.95014C14.1495 6.92702 13.2945 7.51127 12.9375 7.70777C12.8298 7.65827 12.7177 7.61702 12.6015 7.58477C12.9318 6.87152 13.0987 5.81927 12.2651 4.98489C11.5447 4.26452 12.0045 3.08627 12.2238 2.63139C13.1917 2.66139 14.1457 2.89014 15.0243 3.30227ZM19.092 9.14364C18.3652 8.86164 17.1303 8.58977 16.2352 9.48527C15.522 10.1989 14.5893 9.75302 14.2395 9.54189C14.2286 9.42114 14.2061 9.30377 14.1765 9.18939C14.9591 9.11852 15.954 8.73639 16.26 7.59752C16.5228 6.61614 17.7622 6.42602 18.27 6.38664C18.7267 7.24202 19.008 8.17989 19.092 9.14364ZM18.4466 12.7721C17.9591 12.1639 17.0257 11.3089 15.8002 11.6389C14.8252 11.9003 14.2395 11.0449 14.0422 10.6879C14.0917 10.5806 14.133 10.4689 14.1648 10.3534C14.4945 10.5056 14.8961 10.6234 15.3157 10.6234C15.8043 10.6234 16.3166 10.4644 16.7647 10.0163C17.4855 9.29514 18.6633 9.75414 19.1182 9.97389C19.0908 10.9208 18.8692 11.8721 18.4466 12.7721ZM14.1532 14.01C15.1342 14.2725 15.3277 15.5153 15.3652 16.0219C14.5188 16.476 13.5813 16.7618 12.6048 16.8461C12.8876 16.1194 13.1621 14.8823 12.2655 13.9853C11.5518 13.2713 11.997 12.3394 12.2085 11.9895C12.3292 11.9783 12.447 11.9561 12.5617 11.9265C12.633 12.7095 13.014 13.7044 14.1532 14.01ZM8.97634 16.1978C9.58421 15.7099 10.4407 14.7758 10.1126 13.5506C9.85121 12.5738 10.7058 11.9895 11.0625 11.7926C11.1701 11.8421 11.2822 11.8834 11.3985 11.9156C11.0685 12.6289 10.9016 13.6811 11.7352 14.5155C12.456 15.2359 11.9958 16.4141 11.7765 16.8683C10.8086 16.839 9.85496 16.6103 8.97634 16.1978ZM12 8.25039C12.8272 8.25039 13.5 8.92314 13.5 9.75039C13.5 10.5776 12.8272 11.2504 12 11.2504C11.1727 11.2504 10.5 10.5776 10.5 9.75039C10.5 8.92314 11.1727 8.25039 12 8.25039ZM6.15896 13.821C6.92959 13.7029 8.13671 13.3226 8.46484 12.0975C8.72696 11.1199 9.75971 11.0419 10.167 11.0505C10.2363 11.148 10.3121 11.2399 10.3953 11.325C9.75334 11.778 9.08284 12.6056 9.38771 13.7449C9.65021 14.7255 8.67109 15.5141 8.25109 15.8003C7.41409 15.2824 6.70759 14.61 6.15896 13.821ZM16.0713 15.5895C15.9525 14.8185 15.5703 13.6129 14.3471 13.2855C13.3702 13.0234 13.2918 11.9899 13.3001 11.583C13.3976 11.5136 13.4898 11.4379 13.5746 11.3543C14.028 11.9963 14.8556 12.6664 15.9941 12.3626C16.98 12.099 17.7678 13.0826 18.0521 13.5011C17.5353 14.3359 16.8577 15.042 16.0713 15.5895ZM17.838 5.68089C17.067 5.80052 15.8621 6.18152 15.5351 7.40327C15.273 8.38089 14.2398 8.45852 13.8326 8.45027C13.7632 8.35314 13.6875 8.26089 13.6042 8.17577C14.2462 7.72277 14.9171 6.89514 14.6122 5.75627C14.3493 4.77527 15.3285 3.98664 15.7485 3.70014C16.5986 4.22664 17.2991 4.90464 17.838 5.68089ZM7.92896 3.91089C8.04784 4.68152 8.42959 5.88752 9.65284 6.21527C10.6301 6.47739 10.7081 7.51052 10.6998 7.91777C10.6027 7.98714 10.5105 8.06289 10.4257 8.14614C9.97271 7.50339 9.14546 6.83252 8.00584 7.13814C7.02296 7.40102 6.23284 6.41664 5.94821 5.99852C6.46496 5.16414 7.14259 4.45802 7.92896 3.91089ZM5.55259 6.72714C6.03971 7.33464 6.97271 8.18964 8.19971 7.86264C9.17809 7.60164 9.76159 8.45627 9.95772 8.81289C9.90784 8.92052 9.86696 9.03264 9.83471 9.14852C9.12146 8.81889 8.06921 8.65164 7.23484 9.48564C6.51146 10.2086 5.32759 9.74327 4.87646 9.52464C4.90534 8.56127 5.13484 7.61327 5.55259 6.72714Z" fill="#F8F8F8"/>
</svg>
