<svg width="24" height="24" viewBox="0 0 24 24" fill="none" xmlns="http://www.w3.org/2000/svg">
<g clip-path="url(#clip0)">
<path d="M7.68326 10.4588C7.79782 10.4156 7.91703 10.3853 8.03826 10.3687L8.22616 10.0869C8.47327 9.71612 8.50297 9.24151 8.30355 8.84307L8.02634 8.28845C7.36868 8.33068 6.73445 8.54768 6.18872 8.91702L6.3253 8.96268C7.00701 9.1918 7.52102 9.75814 7.68326 10.4588Z" fill="#D1D1D1"/>
<path d="M9.26225 10.6787L9.59341 10.6121C10.03 10.5246 10.3864 10.21 10.5273 9.78731L10.7235 9.20015C10.2282 8.76515 9.62634 8.46995 8.97939 8.34448L9.04344 8.47319C9.36368 9.11671 9.32711 9.88025 8.94666 10.49C9.05859 10.5409 9.16446 10.6042 9.26225 10.6787Z" fill="#D1D1D1"/>
<path d="M6.76597 11.3286C6.81688 11.2169 6.88012 11.111 6.95468 11.0134L6.888 10.6823C6.80052 10.2456 6.48593 9.88922 6.06325 9.7484L5.47609 9.55261C5.04109 10.0476 4.74569 10.6495 4.62042 11.2963L4.74913 11.2322C5.39265 10.9126 6.15578 10.949 6.76597 11.3286Z" fill="#D1D1D1"/>
<path d="M6.62067 19.4482H7.44826V20.2758H6.62067V19.4482Z" fill="#D1D1D1"/>
<path d="M9.10347 12C9.10347 12.457 8.73292 12.8275 8.27589 12.8275C7.81886 12.8275 7.4483 12.457 7.4483 12C7.4483 11.5429 7.81886 11.1724 8.27589 11.1724C8.73292 11.1724 9.10347 11.5429 9.10347 12Z" fill="#D1D1D1"/>
<path d="M5.23909 13.9503C5.4676 13.2684 6.03414 12.7542 6.73484 12.5924C6.6916 12.4778 6.6613 12.3586 6.64473 12.2374L6.36287 12.0495C5.99212 11.8024 5.51751 11.7727 5.11907 11.9721L4.56445 12.2493C4.60668 12.907 4.82388 13.5414 5.19343 14.0869L5.23909 13.9503Z" fill="#D1D1D1"/>
<path d="M7.28952 13.3212L6.95836 13.3878C6.52174 13.4753 6.16532 13.7899 6.0245 14.2126L5.82831 14.7997C6.32353 15.2347 6.92543 15.5299 7.57239 15.6554L7.50834 15.5267C7.18809 14.8832 7.22466 14.1197 7.60512 13.5099C7.49318 13.459 7.38731 13.3957 7.28952 13.3212Z" fill="#D1D1D1"/>
<path d="M4.96552 19.4482H5.7931V20.2758H4.96552V19.4482Z" fill="#D1D1D1"/>
<path d="M8.86845 13.541C8.75389 13.5843 8.63468 13.6146 8.51345 13.6311L8.32555 13.913C8.07844 14.2837 8.04874 14.7583 8.24816 15.1568L8.52537 15.7114C9.18304 15.6692 9.81726 15.4522 10.363 15.0828L10.2264 15.0372C9.5447 14.8081 9.03069 14.2417 8.86845 13.541Z" fill="#D1D1D1"/>
<path d="M11.5862 19.4482H12.4138V20.2758H11.5862V19.4482Z" fill="#D1D1D1"/>
<path d="M9.93103 19.4482H10.7586V20.2758H9.93103V19.4482Z" fill="#D1D1D1"/>
<path d="M16.5517 19.4482H17.3793V20.2758H16.5517V19.4482Z" fill="#D1D1D1"/>
<path d="M14.8965 19.4482H15.7241V20.2758H14.8965V19.4482Z" fill="#D1D1D1"/>
<path d="M13.2414 19.4482H14.069V20.2758H13.2414V19.4482Z" fill="#D1D1D1"/>
<path d="M19.838 11.7623L20.1199 11.9502C20.4909 12.1967 20.9651 12.2262 21.3637 12.0276L21.9183 11.7503C21.8761 11.0927 21.6589 10.4582 21.2893 9.91272L21.2437 10.0493C21.0152 10.7312 20.4486 11.2454 19.7479 11.4073C19.7912 11.5218 19.8215 11.641 19.838 11.7623Z" fill="#D1D1D1"/>
<path d="M18.7995 13.541C18.6849 13.5843 18.5657 13.6146 18.4445 13.6311L18.2566 13.913C18.0095 14.2837 17.9798 14.7583 18.1792 15.1568L18.4564 15.7114C19.1141 15.6692 19.7483 15.4522 20.294 15.0828L20.1574 15.0372C19.4757 14.8081 18.9617 14.2417 18.7995 13.541Z" fill="#D1D1D1"/>
<path d="M19.0345 12C19.0345 12.457 18.664 12.8275 18.2069 12.8275C17.7499 12.8275 17.3793 12.457 17.3793 12C17.3793 11.5429 17.7499 11.1724 18.2069 11.1724C18.664 11.1724 19.0345 11.5429 19.0345 12Z" fill="#D1D1D1"/>
<path d="M20.8093 12.986C20.4229 12.985 20.0447 12.8757 19.7172 12.6708C19.6663 12.7827 19.6028 12.8886 19.5281 12.9864L19.5948 13.3175C19.6822 13.7542 19.9968 14.1106 20.4195 14.2514L21.0067 14.4472C21.4417 13.9522 21.737 13.3503 21.8623 12.7035L21.7336 12.7676C21.4467 12.9112 21.1301 12.986 20.8093 12.986Z" fill="#D1D1D1"/>
<path d="M3.96659 7.86198L5.62177 6.2068H10.8964L12.5516 7.44818H13.9312L15.5863 6.2068H20.8287L23.1571 8.27577H24V6.6206C24 5.93505 23.4442 5.37922 22.7586 5.37922H2.48276V3.72405C2.48276 3.0385 1.92693 2.48267 1.24138 2.48267H0V3.31025H1.24138C1.4699 3.31025 1.65517 3.49553 1.65517 3.72405V10.7585H0.827586V11.5861H1.65517V12.8275H1.24138V16.1378H1.65517V17.3792H0.827586V18.2068H1.65517V21.5171H2.48276V18.6206H22.7586C23.4442 18.6206 24 18.0648 24 17.3792V15.724H23.1571L20.8287 17.793H15.5863L13.9312 16.5516H12.5516L10.8964 17.793H5.62177L3.96659 16.1378H2.48276V15.3103H4.30927L5.96444 16.9654H10.6208L12.276 15.724H14.2068L15.8619 16.9654H20.5143L22.8415 14.8965H24V9.10336H22.8415L20.5131 7.03439H15.8619L14.2068 8.27577H12.276L10.6208 7.03439H5.96444L4.30927 8.68956H2.48276V7.86198H3.96659ZM18.2069 7.44818C20.7208 7.44818 22.7586 9.48603 22.7586 11.9999C22.7586 14.5138 20.7208 16.5516 18.2069 16.5516C15.693 16.5516 13.6552 14.5138 13.6552 11.9999C13.6582 9.48725 15.6942 7.45121 18.2069 7.44818ZM8.27586 7.44818C10.7897 7.44818 12.8276 9.48603 12.8276 11.9999C12.8276 14.5138 10.7897 16.5516 8.27586 16.5516C5.76199 16.5516 3.72414 14.5138 3.72414 11.9999C3.72717 9.48725 5.7632 7.45121 8.27586 7.44818Z" fill="#D1D1D1"/>
<path d="M17.2205 13.3212L16.8893 13.3878C16.4527 13.4753 16.0963 13.7899 15.9555 14.2126L15.7593 14.7997C16.2545 15.2347 16.8564 15.5299 17.5033 15.6554L17.4393 15.5267C17.119 14.8832 17.1556 14.1197 17.5361 13.5099C17.4241 13.459 17.3183 13.3957 17.2205 13.3212Z" fill="#D1D1D1"/>
<path d="M10.8782 12.986C10.4919 12.985 10.1137 12.8757 9.78616 12.6708C9.73525 12.7827 9.6718 12.8886 9.59705 12.9864L9.66372 13.3175C9.75121 13.7542 10.0658 14.1106 10.4885 14.2514L11.0756 14.4472C11.5106 13.9522 11.806 13.3503 11.9313 12.7035L11.8026 12.7676C11.5157 12.9112 11.1991 12.986 10.8782 12.986Z" fill="#D1D1D1"/>
<path d="M15.1701 13.9503C15.3986 13.2684 15.9652 12.7542 16.6659 12.5924C16.6226 12.4778 16.5923 12.3586 16.5758 12.2374L16.2939 12.0495C15.9231 11.8024 15.4485 11.7727 15.0501 11.9721L14.4955 12.2493C14.5377 12.907 14.7549 13.5414 15.1245 14.0869L15.1701 13.9503Z" fill="#D1D1D1"/>
<path d="M19.1933 10.6787L19.5244 10.6121C19.9611 10.5246 20.3175 10.21 20.4583 9.78731L20.6545 9.20015C20.1593 8.76515 19.5574 8.46995 18.9104 8.34448L18.9745 8.47319C19.2947 9.11671 19.2581 9.88025 18.8777 10.49C18.9896 10.5409 19.0955 10.6042 19.1933 10.6787Z" fill="#D1D1D1"/>
<path d="M9.90695 11.7623L10.1888 11.9502C10.5598 12.1967 11.034 12.2262 11.4326 12.0276L11.9872 11.7503C11.945 11.0927 11.7278 10.4582 11.3583 9.91272L11.3126 10.0493C11.0841 10.7312 10.5175 11.2454 9.81683 11.4073C9.86007 11.5218 9.89038 11.641 9.90695 11.7623Z" fill="#D1D1D1"/>
<path d="M16.697 11.3286C16.7479 11.2169 16.8111 11.111 16.8857 11.0134L16.819 10.6823C16.7315 10.2456 16.4169 9.88922 15.9943 9.7484L15.4071 9.55261C14.9721 10.0476 14.6767 10.6495 14.5515 11.2963L14.6802 11.2322C15.3237 10.9126 16.0868 10.949 16.697 11.3286Z" fill="#D1D1D1"/>
<path d="M17.6143 10.4588C17.7289 10.4156 17.8481 10.3853 17.9693 10.3687L18.1572 10.0869C18.4043 9.71612 18.434 9.24151 18.2346 8.84307L17.9574 8.28845C17.2997 8.33068 16.6655 8.54768 16.1198 8.91702L16.2563 8.96268C16.938 9.1918 17.452 9.75814 17.6143 10.4588Z" fill="#D1D1D1"/>
</g>
<defs>
<clipPath id="clip0">
<rect width="24" height="24" fill="white"/>
</clipPath>
</defs>
</svg>
