<svg width="24" height="24" viewBox="0 0 24 24" fill="none" xmlns="http://www.w3.org/2000/svg">
<path d="M3.74927 1.87524V4.12599V20.6245V22.1245C3.74927 23.1584 4.59039 23.9995 5.62427 23.9995H18.3758C19.4096 23.9995 20.2508 23.1584 20.2508 22.1245V20.6245V4.12599V1.87524C20.2508 0.841369 19.4096 0.000244141 18.3758 0.000244141H5.62427C4.59039 0.000244141 3.74927 0.841369 3.74927 1.87524ZM6.75264 17.6354C6.75527 18.112 6.93677 18.5882 7.29977 18.9512C7.65377 19.3052 8.12439 19.5002 8.62539 19.5002C8.63927 19.5002 8.65239 19.4965 8.66627 19.4961C8.67264 19.4965 8.67752 19.4999 8.68427 19.4999H11.1548L13.4063 21.7495H5.62427C5.00402 21.7495 4.49927 21.2447 4.49927 20.6245V12.9021L6.75039 15.1547V17.6252C6.75039 17.629 6.75227 17.632 6.75264 17.6354ZM13.9324 12.3182C13.8098 12.1949 13.6178 12.1731 13.4708 12.2639C13.1696 12.4495 11.6235 13.4027 10.1471 14.3477C7.47789 13.5374 5.62502 11.056 5.62502 8.25099C5.62502 4.73574 8.48477 1.87599 12 1.87599C15.5153 1.87599 18.375 4.73574 18.375 8.25099C18.375 11.4385 15.969 14.1261 12.8798 14.5611C13.4291 13.6851 13.8675 12.9741 13.9868 12.7799C14.0779 12.6321 14.055 12.4409 13.9324 12.3182ZM12.5055 13.7451C11.2335 15.7817 9.75077 18.0914 9.42114 18.421C8.99627 18.8459 8.25489 18.8459 7.83002 18.421C7.39127 17.9822 7.39127 17.2686 7.83002 16.8299C8.15964 16.5002 10.4689 15.0175 12.5055 13.7451ZM18.3758 23.2495H5.62427C5.00402 23.2495 4.49927 22.7447 4.49927 22.1245V22.1151C4.81352 22.3532 5.20052 22.4995 5.62427 22.4995H14.307C14.3093 22.4995 14.3111 22.5006 14.313 22.5006C14.3149 22.5006 14.3168 22.4995 14.319 22.4995H18.3758C18.7995 22.4995 19.1865 22.3529 19.5008 22.1151V22.1245C19.5008 22.7447 18.996 23.2495 18.3758 23.2495ZM19.5008 1.87524V4.12599V20.6245C19.5008 21.2447 18.996 21.7495 18.3758 21.7495H14.4671L11.5755 18.8601C11.541 18.8252 11.4994 18.7979 11.4533 18.7787C11.4075 18.7596 11.3588 18.7499 11.31 18.7499H10.1224C10.5769 18.1679 11.5275 16.7009 12.3769 15.3591C16.116 15.16 19.125 12.019 19.125 8.25099C19.125 4.32212 15.9289 1.12599 12 1.12599C8.07114 1.12599 4.87502 4.32212 4.87502 8.25099C4.87502 11.179 6.68177 13.7901 9.35139 14.8611C8.55452 15.3797 7.85927 15.8489 7.50039 16.1294V14.9995C7.50039 14.998 7.49964 14.9969 7.49964 14.9957C7.49927 14.9481 7.48989 14.9009 7.47152 14.8562C7.45239 14.8101 7.42502 14.7685 7.39014 14.734L4.49927 11.8412V4.12599V1.87524C4.49927 1.25499 5.00402 0.750244 5.62427 0.750244H18.3758C18.996 0.750244 19.5008 1.25499 19.5008 1.87524Z" fill="#F8F8F8"/>
<path d="M12 6.00098C10.7591 6.00098 9.75 7.0101 9.75 8.25098C9.75 9.49185 10.7591 10.501 12 10.501C13.2409 10.501 14.25 9.49185 14.25 8.25098C14.25 7.0101 13.2409 6.00098 12 6.00098ZM12 9.75098C11.1727 9.75098 10.5 9.07823 10.5 8.25098C10.5 7.42373 11.1727 6.75098 12 6.75098C12.8273 6.75098 13.5 7.42373 13.5 8.25098C13.5 9.07823 12.8273 9.75098 12 9.75098Z" fill="#F8F8F8"/>
<path d="M12.0109 7.87573C12.2179 7.87573 12.3859 7.70811 12.3859 7.50073C12.3859 7.29336 12.2179 7.12573 12.0109 7.12573H12.0067C11.7997 7.12573 11.634 7.29336 11.634 7.50073C11.634 7.70811 11.8039 7.87573 12.0109 7.87573Z" fill="#F8F8F8"/>
<path d="M12.0109 8.62573H12.0067C11.7997 8.62573 11.634 8.79336 11.634 9.00073C11.634 9.20811 11.8035 9.37573 12.0109 9.37573C12.2179 9.37573 12.3859 9.20811 12.3859 9.00073C12.3859 8.79336 12.2179 8.62573 12.0109 8.62573Z" fill="#F8F8F8"/>
<path d="M12.7608 7.87573H12.7567C12.5497 7.87573 12.384 8.04336 12.384 8.25073C12.384 8.45811 12.5535 8.62573 12.7608 8.62573C12.9678 8.62573 13.1358 8.45811 13.1358 8.25073C13.1358 8.04336 12.9678 7.87573 12.7608 7.87573Z" fill="#F8F8F8"/>
<path d="M8.63548 18.0002C8.84248 18.0002 9.01048 17.8326 9.01048 17.6252C9.01048 17.4179 8.84248 17.2502 8.63548 17.2502H8.63136C8.42436 17.2502 8.25861 17.4179 8.25861 17.6252C8.25861 17.8326 8.42848 18.0002 8.63548 18.0002Z" fill="#F8F8F8"/>
<path d="M5.63548 20.25H5.63135C5.42435 20.25 5.25861 20.4176 5.25861 20.625C5.25861 20.8324 5.4281 21 5.63548 21C5.84248 21 6.01047 20.8324 6.01047 20.625C6.01047 20.4176 5.84248 20.25 5.63548 20.25Z" fill="#F8F8F8"/>
<path d="M11.2608 7.87573H11.2567C11.0497 7.87573 10.884 8.04336 10.884 8.25073C10.884 8.45811 11.0535 8.62573 11.2608 8.62573C11.4678 8.62573 11.6358 8.45811 11.6358 8.25073C11.6358 8.04336 11.4678 7.87573 11.2608 7.87573Z" fill="#F8F8F8"/>
</svg>
