<svg width="24" height="24" viewBox="0 0 24 24" fill="none" xmlns="http://www.w3.org/2000/svg">
<path d="M20.1328 8.40023C20.3848 8.40023 20.5891 8.19595 20.5891 7.94395C20.5891 7.69196 20.3848 7.48767 20.1328 7.48767C19.8808 7.48767 19.6765 7.69196 19.6765 7.94395C19.6765 8.19595 19.8808 8.40023 20.1328 8.40023Z" fill="#F8F8F8"/>
<path d="M20.1328 16.2606C20.3848 16.2606 20.5891 16.0563 20.5891 15.8043C20.5891 15.5523 20.3848 15.348 20.1328 15.348C19.8808 15.348 19.6765 15.5523 19.6765 15.8043C19.6765 16.0563 19.8808 16.2606 20.1328 16.2606Z" fill="#F8F8F8"/>
<path d="M12.2723 8.40023C12.5243 8.40023 12.7286 8.19595 12.7286 7.94395C12.7286 7.69196 12.5243 7.48767 12.2723 7.48767C12.0203 7.48767 11.816 7.69196 11.816 7.94395C11.816 8.19595 12.0203 8.40023 12.2723 8.40023Z" fill="#F8F8F8"/>
<path d="M12.2723 16.2606C12.5243 16.2606 12.7286 16.0563 12.7286 15.8043C12.7286 15.5523 12.5243 15.348 12.2723 15.348C12.0203 15.348 11.816 15.5523 11.816 15.8043C11.816 16.0563 12.0203 16.2606 12.2723 16.2606Z" fill="#F8F8F8"/>
<path d="M7.80759 5.47968C8.00578 5.47968 8.16642 5.31904 8.16642 5.12085C8.16642 4.92266 8.00578 4.76202 7.80759 4.76202H7.30987V3.96608H7.80759C8.00578 3.96608 8.16642 3.80544 8.16642 3.60726C8.16642 3.40907 8.00578 3.24843 7.80759 3.24843H7.30987V3.16424C7.30983 2.77115 6.99014 2.45142 6.59714 2.45142H4.18941C3.79641 2.45142 3.47672 2.77115 3.47672 3.16415V3.24834H2.97901C2.78082 3.24834 2.62018 3.40898 2.62018 3.60716C2.62018 3.80535 2.78082 3.96599 2.97901 3.96599H3.47677V4.76193H2.97901C2.78082 4.76193 2.62018 4.92257 2.62018 5.12075C2.62018 5.31894 2.78082 5.47958 2.97901 5.47958H3.47677V6.27552H2.97901C2.78082 6.27552 2.62018 6.43616 2.62018 6.63435C2.62018 6.83253 2.78082 6.99317 2.97901 6.99317H3.47677V7.78911H2.97901C2.78082 7.78911 2.62018 7.94975 2.62018 8.14794C2.62018 8.34612 2.78082 8.50676 2.97901 8.50676H3.47677V9.3027H2.97901C2.78082 9.3027 2.62018 9.46334 2.62018 9.66153C2.62018 9.85971 2.78082 10.0204 2.97901 10.0204H3.47677V10.8163H2.97901C2.78082 10.8163 2.62018 10.9769 2.62018 11.1751C2.62018 11.3733 2.78082 11.5339 2.97901 11.5339H3.47677V12.3298H2.97901C2.78082 12.3298 2.62018 12.4905 2.62018 12.6887C2.62018 12.8868 2.78082 13.0475 2.97901 13.0475H3.47677V13.8434H2.97901C2.78082 13.8434 2.62018 14.0041 2.62018 14.2023C2.62018 14.4004 2.78082 14.5611 2.97901 14.5611H3.47677V14.833C3.47677 15.226 3.79646 15.5456 4.18946 15.5456H6.59714C6.99014 15.5456 7.30987 15.226 7.30987 14.833V14.5611H7.80759C8.00578 14.5611 8.16642 14.4004 8.16642 14.2023C8.16642 14.0041 8.00578 13.8434 7.80759 13.8434H7.30987V13.0475H7.80759C8.00578 13.0475 8.16642 12.8868 8.16642 12.6887C8.16642 12.4905 8.00578 12.3298 7.80759 12.3298H7.30987V11.534H7.80759C8.00578 11.534 8.16642 11.3734 8.16642 11.1752C8.16642 10.977 8.00578 10.8164 7.80759 10.8164H7.30987V10.0204H7.80759C8.00578 10.0204 8.16642 9.85981 8.16642 9.66162C8.16642 9.46343 8.00578 9.30279 7.80759 9.30279H7.30987V8.50686H7.80759C8.00578 8.50686 8.16642 8.34622 8.16642 8.14803C8.16642 7.94984 8.00578 7.7892 7.80759 7.7892H7.30987V6.99327H7.80759C8.00578 6.99327 8.16642 6.83263 8.16642 6.63444C8.16642 6.43625 8.00578 6.27561 7.80759 6.27561H7.30987V5.47968H7.80759ZM4.19443 14.8331L3.8356 14.8331L4.19443 14.8331ZM6.59217 14.8281H4.19443V3.16912H6.59217V14.8281Z" fill="#F8F8F8"/>
<path d="M22.5968 0.917021H20.1283V0.640084C20.1283 0.328272 19.8747 0.074585 19.5628 0.074585H13.5626C13.2508 0.074585 12.9971 0.328225 12.9971 0.640084V0.917021H11.8699V0.640084C11.8699 0.328272 11.6163 0.074585 11.3044 0.074585H9.87448C9.56267 0.074585 9.30898 0.328225 9.30898 0.640084V0.917021H6.10818C5.90999 0.917021 5.74935 1.07766 5.74935 1.27585C5.74935 1.47404 5.90999 1.63468 6.10818 1.63468H9.30898V2.07005C9.30898 2.38186 9.56262 2.63555 9.87448 2.63555H11.3044C11.6163 2.63555 11.8699 2.38191 11.8699 2.07005V1.63468H12.9971V2.07005C12.9971 2.38186 13.2508 2.63555 13.5626 2.63555H19.5628C19.8746 2.63555 20.1283 2.38191 20.1283 2.07005V1.63468H22.5968C22.9748 1.63468 23.2823 1.94218 23.2823 2.32013V22.5222C23.2823 22.9002 22.9748 23.2077 22.5968 23.2077H2.39475C2.01679 23.2077 1.70929 22.9002 1.70929 22.5222V22.1152H2.09957C2.41931 22.1152 2.67942 21.8551 2.67942 21.5354V18.1334C2.67942 17.8137 2.41931 17.5536 2.09957 17.5536H1.70929V2.32013C1.70929 1.94218 2.01679 1.63468 2.39475 1.63468H4.19441C4.3926 1.63468 4.55324 1.47404 4.55324 1.27585C4.55324 1.07766 4.3926 0.917021 4.19441 0.917021H2.39475C1.62108 0.917021 0.991639 1.54641 0.991639 2.32013V17.5536H0.579843C0.260109 17.5536 0 17.8137 0 18.1334V21.5354C0 21.8551 0.260109 22.1152 0.579843 22.1152H0.991686V22.5222C0.991686 23.2959 1.62108 23.9253 2.39479 23.9253H22.5969C23.3706 23.9253 24 23.2959 24 22.5222V2.32013C24 1.54641 23.3706 0.917021 22.5968 0.917021ZM11.1523 1.91785H10.0267V0.79224H11.1523V1.91785ZM19.4106 1.91785H13.7148V0.79224H19.4106V1.91785ZM0.717655 21.3975V18.2712H1.96176V21.3975C1.96143 21.3975 0.717983 21.3975 0.717655 21.3975Z" fill="#F8F8F8"/>
<path d="M16.2023 7.53357C13.8374 7.53357 11.9133 9.45764 11.9133 11.8226C11.9133 14.1875 13.8374 16.1115 16.2023 16.1115C18.5673 16.1115 20.4913 14.1875 20.4913 11.8226C20.4913 9.45764 18.5673 7.53357 16.2023 7.53357ZM16.2023 15.3939C14.2331 15.3939 12.631 13.7918 12.631 11.8226C12.631 9.85332 14.2331 8.25122 16.2023 8.25122C18.1716 8.25122 19.7737 9.85332 19.7737 11.8226C19.7737 13.7918 18.1716 15.3939 16.2023 15.3939Z" fill="#F8F8F8"/>
<path d="M19.2129 11.0066C18.8511 10.6917 18.1677 10.6329 17.1275 10.828C17.3107 10.2536 17.6063 9.78445 17.7791 9.54046C17.8962 9.37532 17.9215 9.16443 17.847 8.97623C17.7724 8.78803 17.6095 8.65167 17.4112 8.6115C16.3532 8.3969 15.6908 8.46239 15.3865 8.81193C15.0716 9.17376 15.0128 9.85715 15.2079 10.8973C14.6335 10.7142 14.1644 10.4185 13.9204 10.2456C13.7552 10.1287 13.5443 10.1033 13.3562 10.1778C13.168 10.2523 13.0317 10.4152 12.9914 10.6136C12.7768 11.6717 12.8424 12.334 13.1918 12.6382C13.415 12.8324 13.7602 12.9292 14.2359 12.9292C14.5317 12.9292 14.8786 12.8914 15.2773 12.8166C15.0941 13.3911 14.7984 13.8603 14.6256 14.1044C14.5086 14.2695 14.4832 14.4804 14.5578 14.6686C14.6323 14.8567 14.7952 14.9932 14.9935 15.0334C15.3978 15.1153 15.7441 15.1564 16.0349 15.1564C16.5053 15.1564 16.8302 15.0488 17.0182 14.8329C17.3332 14.4711 17.392 13.7877 17.1968 12.7475C17.7713 12.9307 18.2403 13.2263 18.4844 13.3992C18.5869 13.4718 18.7071 13.5091 18.8285 13.5091C18.9026 13.5091 18.9772 13.4952 19.0485 13.467C19.2367 13.3925 19.3731 13.2296 19.4133 13.0312C19.6279 11.9731 19.5624 11.3108 19.2129 11.0066ZM13.6634 12.0972C13.6147 12.0499 13.5192 11.7376 13.6604 10.9372C13.9716 11.1429 14.391 11.3772 14.8845 11.5467C14.866 11.6353 14.8562 11.7269 14.8561 11.8208C14.8561 11.8213 14.856 11.8219 14.856 11.8224C14.856 11.8224 14.856 11.8224 14.856 11.8224C14.856 11.8224 14.856 11.8224 14.856 11.8225C14.856 11.8484 14.857 11.8742 14.8584 11.8998C14.8589 11.9086 14.8597 11.9173 14.8604 11.9259C14.8617 11.9427 14.8632 11.9594 14.865 11.9761C14.8662 11.9865 14.8676 11.9969 14.869 12.0073C14.8711 12.0222 14.8734 12.037 14.876 12.0517C14.8778 12.0625 14.8796 12.0733 14.8817 12.084C14.8847 12.0992 14.8882 12.1142 14.8917 12.1293C14.8936 12.1373 14.895 12.1454 14.8971 12.1534C14.1712 12.2632 13.7812 12.1999 13.6634 12.0972ZM16.4771 14.3612C16.4297 14.4099 16.1175 14.5055 15.3171 14.3643C15.5228 14.0531 15.7571 13.6336 15.9266 13.1401C15.9997 13.1554 16.0748 13.1644 16.1516 13.1673C16.1553 13.1674 16.1589 13.1675 16.1625 13.1676C16.1758 13.1679 16.189 13.1685 16.2023 13.1685C16.2099 13.1685 16.2173 13.1681 16.2249 13.168C16.2304 13.1679 16.2359 13.1677 16.2414 13.1676C16.2603 13.167 16.2792 13.1661 16.298 13.1648C16.3047 13.1643 16.3114 13.1638 16.318 13.1632C16.3352 13.1618 16.3522 13.1599 16.3692 13.1578C16.3773 13.1568 16.3854 13.1558 16.3934 13.1547C16.4083 13.1526 16.423 13.1501 16.4377 13.1475C16.4476 13.1458 16.4575 13.1442 16.4672 13.1422C16.4794 13.1398 16.4915 13.1369 16.5035 13.1341C16.5134 13.1319 16.5234 13.13 16.5332 13.1275C16.6432 13.8534 16.5797 14.2434 16.4771 14.3612ZM16.8308 11.8225C16.8308 11.8411 16.8296 11.8594 16.828 11.8776C16.8275 11.8838 16.8268 11.8901 16.8261 11.8964C16.8247 11.9084 16.8227 11.9204 16.8206 11.9322C16.8179 11.9472 16.8146 11.9621 16.8108 11.9769C16.8095 11.9822 16.8082 11.9875 16.8067 11.9927C16.8032 12.005 16.7994 12.0172 16.7951 12.0293C16.7947 12.0303 16.7944 12.0313 16.794 12.0322C16.7799 12.0716 16.7618 12.1098 16.7398 12.1462C16.7394 12.1469 16.7392 12.1476 16.7387 12.1482C16.6983 12.2144 16.6462 12.2726 16.585 12.3198C16.5847 12.3201 16.5843 12.3202 16.5839 12.3205C16.5336 12.3592 16.4789 12.3891 16.4213 12.4107C16.4135 12.4136 16.4058 12.4167 16.3979 12.4193C16.3896 12.4221 16.381 12.4244 16.3726 12.4268C16.362 12.4297 16.3514 12.4326 16.3407 12.435C16.3332 12.4367 16.3257 12.4383 16.3181 12.4397C16.3055 12.442 16.2928 12.4439 16.28 12.4455C16.2736 12.4463 16.2673 12.4472 16.2609 12.4478C16.2416 12.4496 16.2221 12.4508 16.2023 12.4508C16.1837 12.4508 16.1653 12.4496 16.1471 12.448C16.1409 12.4474 16.1346 12.4468 16.1284 12.446C16.1162 12.4446 16.1042 12.4426 16.0923 12.4405C16.0776 12.4378 16.0629 12.4346 16.0484 12.4309C16.0429 12.4295 16.0373 12.4282 16.0319 12.4266C16.0197 12.4231 16.0075 12.4193 15.9955 12.415C15.9944 12.4147 15.9933 12.4142 15.9922 12.4138C15.9529 12.3997 15.9148 12.3816 15.8785 12.3597C15.8778 12.3593 15.8772 12.359 15.8765 12.3586C15.8105 12.3184 15.7525 12.2665 15.7053 12.2055C15.7049 12.205 15.7046 12.2043 15.7042 12.2038C15.6655 12.1534 15.6355 12.0986 15.6138 12.041C15.6109 12.0333 15.6079 12.0257 15.6053 12.0178C15.6025 12.0094 15.6002 12.0009 15.5978 11.9924C15.5948 11.9819 15.592 11.9714 15.5896 11.9606C15.5879 11.9531 15.5863 11.9455 15.5849 11.9379C15.5825 11.9254 15.5806 11.9127 15.579 11.9C15.5782 11.8935 15.5773 11.8872 15.5767 11.8807C15.5749 11.8615 15.5737 11.8421 15.5737 11.8223C15.5737 11.8222 15.5737 11.8222 15.5737 11.8221C15.5737 11.8037 15.5749 11.7854 15.5766 11.7672C15.5771 11.7609 15.5777 11.7547 15.5785 11.7485C15.5799 11.7363 15.5819 11.7243 15.584 11.7123C15.5867 11.6976 15.5899 11.6829 15.5936 11.6684C15.595 11.6629 15.5963 11.6574 15.5978 11.6519C15.6014 11.6397 15.6052 11.6275 15.6094 11.6155C15.6098 11.6144 15.6102 11.6133 15.6106 11.6122C15.6247 11.5729 15.6428 11.5347 15.6648 11.4984C15.6651 11.4978 15.6654 11.4972 15.6657 11.4966C15.7062 11.4301 15.7584 11.3719 15.8198 11.3246C15.8201 11.3244 15.8204 11.3243 15.8206 11.3241C15.871 11.2855 15.9257 11.2556 15.9832 11.2339C15.991 11.231 15.9987 11.228 16.0066 11.2253C16.015 11.2226 16.0235 11.2202 16.0319 11.2178C16.0425 11.2149 16.0531 11.2121 16.0638 11.2096C16.0713 11.2079 16.0789 11.2064 16.0865 11.2049C16.099 11.2026 16.1117 11.2007 16.1246 11.1991C16.1309 11.1983 16.1372 11.1974 16.1436 11.1968C16.163 11.195 16.1825 11.1938 16.2022 11.1938C16.2209 11.1938 16.2392 11.1951 16.2574 11.1967C16.2637 11.1972 16.27 11.1979 16.2762 11.1986C16.2883 11.2 16.3002 11.202 16.3121 11.2041C16.327 11.2068 16.3419 11.2101 16.3567 11.2139C16.3619 11.2152 16.3673 11.2165 16.3726 11.218C16.3849 11.2215 16.3971 11.2253 16.4092 11.2296C16.4102 11.23 16.4112 11.2304 16.4122 11.2307C16.4517 11.2449 16.4899 11.263 16.5262 11.2849C16.5267 11.2852 16.5272 11.2854 16.5277 11.2857C16.5939 11.326 16.652 11.378 16.6993 11.4391C16.6997 11.4397 16.7 11.4403 16.7004 11.4408C16.739 11.491 16.7688 11.5456 16.7905 11.603C16.7935 11.6109 16.7966 11.6188 16.7993 11.6269C16.802 11.6351 16.8043 11.6435 16.8067 11.6519C16.8097 11.6625 16.8126 11.6733 16.815 11.6842C16.8167 11.6916 16.8182 11.699 16.8196 11.7065C16.822 11.7192 16.8239 11.732 16.8255 11.7449C16.8263 11.7511 16.8273 11.7574 16.8278 11.7637C16.8297 11.783 16.8308 11.8026 16.8308 11.8224C16.8308 11.8224 16.8308 11.8225 16.8308 11.8225ZM16.478 10.5046C16.4049 10.4894 16.3296 10.4803 16.2528 10.4774C16.2493 10.4773 16.2458 10.4773 16.2423 10.4772C16.229 10.4768 16.2157 10.4761 16.2023 10.4761C16.1947 10.4761 16.1872 10.4766 16.1797 10.4767C16.1741 10.4768 16.1686 10.477 16.1632 10.4771C16.1444 10.4776 16.1256 10.4786 16.107 10.4799C16.1001 10.4804 16.0931 10.4809 16.0862 10.4815C16.0694 10.4829 16.0527 10.4847 16.0361 10.4868C16.0276 10.4878 16.0191 10.4888 16.0106 10.49C15.9962 10.4921 15.982 10.4945 15.9678 10.497C15.9575 10.4988 15.9472 10.5005 15.937 10.5025C15.9252 10.5049 15.9135 10.5076 15.9017 10.5104C15.8916 10.5127 15.8813 10.5146 15.8713 10.5172C15.7614 9.79134 15.8249 9.40139 15.9275 9.2835C15.9564 9.25373 16.0843 9.20643 16.3623 9.20643C16.539 9.20643 16.7763 9.22556 17.0874 9.28045C16.8818 9.5917 16.6475 10.0111 16.478 10.5046ZM18.7443 12.7075C18.4331 12.5019 18.0137 12.2677 17.5201 12.0981C17.5387 12.009 17.5486 11.9169 17.5486 11.8224C17.5486 11.8224 17.5486 11.8224 17.5486 11.8224C17.5486 11.8223 17.5486 11.8224 17.5486 11.8223C17.5486 11.8223 17.5486 11.8222 17.5486 11.8221C17.5486 11.7962 17.5477 11.7706 17.5462 11.7451C17.5457 11.7362 17.5448 11.7274 17.5442 11.7185C17.5429 11.7019 17.5415 11.6853 17.5396 11.6689C17.5384 11.6584 17.537 11.6478 17.5356 11.6373C17.5335 11.6226 17.5312 11.6079 17.5287 11.5933C17.5268 11.5824 17.525 11.5716 17.5229 11.5607C17.5199 11.5455 17.5164 11.5304 17.5128 11.5154C17.5109 11.5074 17.5095 11.4993 17.5075 11.4914C18.233 11.3815 18.6229 11.4449 18.7414 11.5477C18.79 11.5954 18.8854 11.9078 18.7443 12.7075Z" fill="#F8F8F8"/>
<path d="M5.75429 17.1275C5.23408 16.6074 4.3877 16.6074 3.86748 17.1276C3.34731 17.6478 3.34731 18.4942 3.86748 19.0144C4.12764 19.2745 4.46917 19.4045 4.81094 19.4045C5.15251 19.4045 5.49428 19.2745 5.75434 19.0144C5.75434 19.0144 5.75434 19.0144 5.75439 19.0144C6.27451 18.4942 6.27451 17.6478 5.75429 17.1275ZM5.24687 18.5069C5.00645 18.7473 4.61533 18.7472 4.37495 18.5069C4.13458 18.2666 4.13458 17.8755 4.37495 17.635C4.49514 17.5148 4.65297 17.4547 4.81089 17.4547C4.96872 17.4547 5.12664 17.5148 5.24683 17.635C5.4872 17.8754 5.4872 18.2666 5.24687 18.5069Z" fill="#F8F8F8"/>
<path d="M5.75434 20.293C5.23408 19.7729 4.3877 19.773 3.86748 20.293C3.34731 20.8132 3.34731 21.6596 3.86748 22.1799C4.12764 22.44 4.46917 22.57 4.81094 22.57C5.15252 22.57 5.49428 22.4399 5.75434 22.1799L5.75439 22.1798C6.27456 21.6596 6.27456 20.8132 5.75434 20.293ZM5.24687 21.6724C5.00645 21.9128 4.61533 21.9128 4.37495 21.6725C4.13458 21.432 4.13458 21.0409 4.37495 20.8005C4.49514 20.6803 4.65302 20.6202 4.81089 20.6202C4.96877 20.6202 5.12664 20.6803 5.24683 20.8005C5.4872 21.0409 5.4872 21.432 5.24687 21.6724Z" fill="#F8F8F8"/>
<path d="M8.97675 17.1274C8.45653 16.6073 7.61011 16.6072 7.0899 17.1275C6.56973 17.6477 6.56973 18.4941 7.0899 19.0143C7.35001 19.2744 7.69168 19.4045 8.03335 19.4045C8.37497 19.4045 8.71669 19.2744 8.9768 19.0143C9.49692 18.4942 9.49692 17.6477 8.97675 17.1274ZM8.46924 18.5068C8.22891 18.7472 7.83774 18.7472 7.59736 18.5068C7.35699 18.2665 7.35699 17.8754 7.59736 17.6349C7.71755 17.5147 7.87543 17.4546 8.0333 17.4546C8.19118 17.4546 8.34905 17.5147 8.46924 17.6349C8.70966 17.8754 8.70966 18.2665 8.46924 18.5068Z" fill="#F8F8F8"/>
<path d="M8.97679 20.2929C8.45653 19.7728 7.61011 19.7728 7.0899 20.2929C6.56973 20.8131 6.56973 21.6595 7.0899 22.1798C7.35 22.4399 7.69167 22.5699 8.03334 22.5699C8.37497 22.5699 8.71668 22.4399 8.97679 22.1798C8.97679 22.1797 8.97679 22.1797 8.97679 22.1797C9.49696 21.6595 9.49696 20.8131 8.97679 20.2929ZM8.46923 21.6723C8.22891 21.9127 7.83773 21.9127 7.59736 21.6724C7.35699 21.4319 7.35699 21.0408 7.59736 20.8004C7.71755 20.6802 7.87542 20.6201 8.0333 20.6201C8.19117 20.6201 8.34905 20.6802 8.46923 20.8004C8.70965 21.0408 8.70965 21.4319 8.46923 21.6723Z" fill="#F8F8F8"/>
<path d="M12.7553 4.34334C12.2419 3.83001 11.4069 3.83011 10.8937 4.34329C10.6451 4.59196 10.5082 4.92248 10.5082 5.27413C10.5082 5.62574 10.6451 5.95625 10.8937 6.20492C11.1423 6.45355 11.4729 6.59042 11.8245 6.59042C12.1761 6.59042 12.5066 6.4535 12.7553 6.20492C13.2685 5.69169 13.2685 4.85657 12.7553 4.34334ZM12.2477 5.69736C12.0144 5.93085 11.6344 5.9308 11.4012 5.69736C11.1678 5.46397 11.1678 5.08415 11.4012 4.85081C11.5179 4.73409 11.6711 4.67573 11.8245 4.67573C11.9778 4.67573 12.1311 4.73409 12.2478 4.85081C12.4812 5.08415 12.4812 5.46397 12.2477 5.69736Z" fill="#F8F8F8"/>
<path d="M17.1331 4.34326C16.8845 4.09464 16.5539 3.95776 16.2023 3.95776C15.8507 3.95776 15.5201 4.09468 15.2715 4.34326C14.7583 4.85654 14.7583 5.69161 15.2715 6.2048C15.5201 6.45347 15.8507 6.59034 16.2023 6.59034C16.5539 6.59034 16.8845 6.45347 17.1331 6.20485C17.6463 5.69161 17.6463 4.85649 17.1331 4.34326ZM16.6257 5.69729C16.5126 5.81035 16.3623 5.87264 16.2023 5.87264C16.0424 5.87264 15.8921 5.8104 15.7791 5.69729C15.5456 5.46394 15.5456 5.08412 15.7791 4.85068C15.8921 4.73762 16.0424 4.67537 16.2023 4.67537C16.3623 4.67537 16.5126 4.73767 16.6257 4.85068C16.8591 5.08412 16.8591 5.46394 16.6257 5.69729Z" fill="#F8F8F8"/>
<path d="M21.511 4.34321C20.9977 3.82998 20.1627 3.82989 19.6494 4.34321C19.1362 4.85649 19.1362 5.69156 19.6494 6.2048C19.8981 6.45342 20.2286 6.59029 20.5802 6.59029C20.9319 6.59029 21.2624 6.45337 21.511 6.2048C21.7596 5.95617 21.8965 5.62566 21.8965 5.27405C21.8965 4.9224 21.7596 4.59188 21.511 4.34321ZM21.0035 5.69733C20.7702 5.93077 20.3903 5.93077 20.1569 5.69733C19.9235 5.46394 19.9235 5.08411 20.1569 4.85077C20.2736 4.73405 20.4269 4.67569 20.5802 4.67569C20.7335 4.67569 20.8869 4.73405 21.0035 4.85077C21.2369 5.08411 21.2369 5.46394 21.0035 5.69733Z" fill="#F8F8F8"/>
<path d="M21.8127 17.2629H10.5919C10.3937 17.2629 10.2331 17.4236 10.2331 17.6218C10.2331 17.82 10.3937 17.9806 10.5919 17.9806H21.8127C22.0109 17.9806 22.1716 17.82 22.1716 17.6218C22.1716 17.4236 22.0109 17.2629 21.8127 17.2629Z" fill="#F8F8F8"/>
<path d="M21.8127 19.2949H10.5919C10.3937 19.2949 10.2331 19.4556 10.2331 19.6537C10.2331 19.8519 10.3937 20.0126 10.5919 20.0126H21.8127C22.0109 20.0126 22.1716 19.8519 22.1716 19.6537C22.1716 19.4556 22.0109 19.2949 21.8127 19.2949Z" fill="#F8F8F8"/>
<path d="M12.0183 21.3268H10.5919C10.3937 21.3268 10.2331 21.4874 10.2331 21.6856C10.2331 21.8838 10.3937 22.0444 10.5919 22.0444H12.0183C12.2165 22.0444 12.3771 21.8838 12.3771 21.6856C12.3771 21.4874 12.2165 21.3268 12.0183 21.3268Z" fill="#F8F8F8"/>
<path d="M21.8127 21.3268H13.9138C13.7156 21.3268 13.5549 21.4874 13.5549 21.6856C13.5549 21.8838 13.7156 22.0444 13.9138 22.0444H21.8127C22.0109 22.0444 22.1716 21.8838 22.1716 21.6856C22.1715 21.4874 22.0109 21.3268 21.8127 21.3268Z" fill="#F8F8F8"/>
</svg>
