<svg width="24" height="24" viewBox="0 0 24 24" fill="none" xmlns="http://www.w3.org/2000/svg">
<g clip-path="url(#clip0)">
<path d="M23.9699 5.64879L23.9676 5.64117L22.7675 2.84094C22.7046 2.69366 22.5599 2.59814 22.3999 2.59814H1.59818C1.4382 2.59814 1.29347 2.69346 1.23057 2.84055L0.0304713 5.64078V5.6484C0.013673 5.69079 0.00449256 5.73571 0.00312526 5.78122C0.00312526 5.78728 0 5.79197 0 5.79802V20.9997C0 21.2206 0.179116 21.3997 0.400033 21.3997H23.6C23.8209 21.3997 24 21.2206 24 20.9997V5.79841C24 5.79236 23.9967 5.78767 23.9967 5.78161C23.9953 5.7361 23.9863 5.69118 23.9699 5.64879ZM1.86168 3.39821H22.1362L22.9931 5.39838H1.00497L1.86168 3.39821ZM23.2 20.5996H0.798113V6.19844H23.2V20.5996Z" fill="#F8F8F8"/>
<path d="M17.3167 12.482C17.3917 12.557 17.4935 12.5992 17.5995 12.5992H20.7998C20.9058 12.5992 21.0076 12.557 21.0826 12.482L22.2827 11.2819C22.3577 11.2069 22.3999 11.1051 22.3999 10.9991V8.99891C22.3999 8.77799 22.2208 8.59888 21.9999 8.59888H16.3994C16.1785 8.59888 15.9994 8.77799 15.9994 8.99891V10.9991C15.9994 11.1051 16.0416 11.2069 16.1166 11.2819L17.3167 12.482ZM16.7995 9.39895H21.5998V10.8334L20.6341 11.7991H17.7652L16.7995 10.8334V9.39895Z" fill="#F8F8F8"/>
<path d="M18.2835 10.4829C18.3187 10.4438 18.3472 10.3993 18.3675 10.3508C18.388 10.3028 18.3989 10.2512 18.3995 10.1989C18.3995 9.97794 18.2204 9.79883 17.9995 9.79883C17.7786 9.79883 17.5995 9.97794 17.5995 10.1989C17.6001 10.2512 17.611 10.3028 17.6315 10.3508C17.6518 10.3993 17.6802 10.4438 17.7155 10.4829C17.8731 10.6376 18.1257 10.6376 18.2835 10.4829Z" fill="#F8F8F8"/>
<path d="M19.0476 11.3671C19.1965 11.431 19.3692 11.3976 19.4836 11.2831C19.5188 11.244 19.5473 11.1995 19.5676 11.1511C19.5881 11.103 19.5991 11.0514 19.5996 10.9991C19.6006 10.8366 19.5032 10.6897 19.3529 10.6274C19.2029 10.5649 19.0301 10.5996 18.9156 10.7151C18.8416 10.7911 18.8 10.893 18.7996 10.9991C18.7984 11.1055 18.8402 11.2079 18.9156 11.2831C18.9545 11.3185 18.999 11.3468 19.0476 11.3671Z" fill="#F8F8F8"/>
<path d="M20.1157 10.4827C20.2733 10.6374 20.5259 10.6374 20.6837 10.4827C20.7189 10.4436 20.7474 10.3991 20.7677 10.3507C20.7882 10.3026 20.7992 10.251 20.7998 10.1987C20.7982 10.0928 20.7568 9.99125 20.6837 9.91468C20.5876 9.82073 20.4515 9.78049 20.3196 9.80666C20.2946 9.81096 20.2704 9.81917 20.2478 9.83069C20.2222 9.83948 20.1977 9.85159 20.1753 9.86663C20.1546 9.88148 20.1347 9.89749 20.1157 9.91468C20.0425 9.99125 20.0009 10.0926 19.9997 10.1987C19.9983 10.2512 20.0093 10.3032 20.0317 10.3507C20.052 10.3991 20.0804 10.4436 20.1157 10.4827Z" fill="#F8F8F8"/>
<path d="M21.5999 15.7993H16.7994C16.5785 15.7993 16.3994 15.9784 16.3994 16.1994V18.5996C16.3994 18.8205 16.5785 18.9996 16.7994 18.9996H21.5999C21.8208 18.9996 21.9999 18.8205 21.9999 18.5996V16.1994C21.9999 15.9784 21.8208 15.7993 21.5999 15.7993ZM17.1995 16.5994H18.7996V18.1995H17.1995V16.5994ZM21.1998 18.1995H19.5997V16.5994H21.1998V18.1995Z" fill="#F8F8F8"/>
<path d="M1.99818 19.7997H3.59832V18.9996H2.39821V17.7996H1.59814V19.3997C1.59814 19.6206 1.77726 19.7997 1.99818 19.7997Z" fill="#F8F8F8"/>
<path d="M13.5992 8.99894H14.3993V7.39881C14.3993 7.1779 14.2201 6.99878 13.9992 6.99878H12.3991V7.79884H13.5992V8.99894Z" fill="#F8F8F8"/>
<path d="M2.39821 7.79884H3.59832V6.99878H1.99818C1.77726 6.99878 1.59814 7.1779 1.59814 7.39881V8.99894H2.39821V7.79884Z" fill="#F8F8F8"/>
<path d="M13.5992 18.9996H12.3991V19.7997H13.9992C14.2201 19.7997 14.3993 19.6206 14.3993 19.3997V17.7996H13.5992V18.9996Z" fill="#F8F8F8"/>
<path d="M7.99873 7.39868C4.68478 7.39868 1.99823 10.0852 1.99823 13.3992C1.99823 16.7131 4.68478 19.3997 7.99873 19.3997C11.3127 19.3997 13.9992 16.7131 13.9992 13.3992C13.9955 10.0868 11.3111 7.40239 7.99873 7.39868ZM11.3781 16.2131C12.7394 14.584 12.7394 12.2143 11.3781 10.5853L11.9434 10.02C13.6178 11.9618 13.6178 14.8366 11.9434 16.7782L11.3781 16.2131ZM9.9989 13.3992C9.9987 13.791 9.88287 14.1742 9.66567 14.5004L9.0787 13.9133C9.23926 13.5892 9.23926 13.2089 9.0787 12.8851L9.66606 12.2979C9.88307 12.6241 9.9989 13.0074 9.9989 13.3992ZM5.99856 13.3992C5.99856 13.0072 6.11459 12.6241 6.33179 12.2979L6.91856 12.8851C6.758 13.2089 6.758 13.5892 6.91856 13.9133L6.3314 14.5004C6.1142 14.1742 5.99856 13.791 5.99856 13.3992ZM7.5987 13.3992C7.5987 13.1783 7.77781 12.9991 7.99873 12.9991C8.21965 12.9991 8.39876 13.1783 8.39876 13.3992C8.39876 13.6201 8.21965 13.7992 7.99873 13.7992C7.77781 13.7992 7.5987 13.6201 7.5987 13.3992ZM8.51264 12.319C8.18878 12.1585 7.80848 12.1585 7.48462 12.319L6.89747 11.7319C7.56432 11.2875 8.43295 11.2875 9.09999 11.7319L8.51264 12.319ZM7.48462 14.4792C7.80848 14.6399 8.18878 14.6399 8.51264 14.4792L9.09999 15.0665C8.43295 15.5107 7.56432 15.5107 6.89747 15.0665L7.48462 14.4792ZM9.6725 11.159C8.68179 10.4112 7.31547 10.4112 6.32496 11.159L5.75401 10.5882C7.06506 9.5348 8.93221 9.5348 10.2433 10.5882L9.6725 11.159ZM5.7585 11.7254C5.01059 12.7159 5.01059 14.0824 5.7585 15.073L5.18756 15.6437C4.13415 14.3327 4.13415 12.4655 5.18756 11.1547L5.7585 11.7254ZM6.32496 15.6394C7.31547 16.3871 8.68179 16.3871 9.6725 15.6394L10.2433 16.2102C8.93221 17.2636 7.06506 17.2636 5.75401 16.2102L6.32496 15.6394ZM10.239 15.073C10.9867 14.0824 10.9867 12.7159 10.239 11.7254L10.8097 11.1547C11.8631 12.4655 11.8631 14.3327 10.8097 15.6437L10.239 15.073ZM11.3785 9.45452L10.8132 10.0196C9.18438 8.65855 6.81465 8.65855 5.1856 10.0196L4.62032 9.45452C6.56209 7.78016 9.43694 7.78016 11.3785 9.45452ZM4.05387 10.02L4.61915 10.5853C3.2581 12.2143 3.2581 14.584 4.61915 16.2131L4.05387 16.7782C2.37971 14.8366 2.37971 11.9618 4.05387 10.02ZM4.61954 17.3438L5.18482 16.7786C6.81387 18.1398 9.18359 18.1398 10.8124 16.7786L11.3777 17.3438C9.43615 19.0182 6.56131 19.0182 4.61954 17.3438Z" fill="#F8F8F8"/>
</g>
<defs>
<clipPath id="clip0">
<rect width="24" height="24" fill="white"/>
</clipPath>
</defs>
</svg>
