<svg width="24" height="24" viewBox="0 0 24 24" fill="none" xmlns="http://www.w3.org/2000/svg">
<path d="M6.35234 23.1817C6.14676 23.1825 5.94942 23.1009 5.80443 22.9552L2.81033 19.9606C2.56049 19.7064 2.51433 19.3154 2.69812 19.01C2.86384 18.7172 2.81393 18.3499 2.57609 18.1119C2.33826 17.8739 1.9709 17.8238 1.678 17.9893C1.37249 18.1736 0.980969 18.1274 0.726696 17.8772L0.423155 17.5738C0.121634 17.2713 0.121459 16.7819 0.422762 16.4792L16.2994 0.60251C16.602 0.300791 17.0916 0.300791 17.3941 0.60251L17.698 0.906444C17.9479 1.16095 17.9938 1.55242 17.8094 1.85779C17.6444 2.15069 17.6947 2.51767 17.9326 2.7553C18.1704 2.99293 18.5374 3.04299 18.8302 2.87771C19.1358 2.69399 19.527 2.74011 19.7815 2.98988L22.7756 5.98449C23.0775 6.28708 23.0773 6.77699 22.7752 7.07936L6.89946 22.9556C6.75468 23.1011 6.55762 23.1826 6.35234 23.1817ZM2.05598 17.1092C2.45973 17.1092 2.84692 17.2697 3.13216 17.5555C3.61982 18.0444 3.72194 18.7983 3.38192 19.3993L6.36119 22.3992L22.2195 6.5226L19.2249 3.54605C18.6275 3.8997 17.8663 3.80321 17.376 3.31168C16.8886 2.82284 16.7863 2.06922 17.1259 1.46816L16.8377 1.15888L0.979404 17.0355L1.2833 17.3209C1.51722 17.1824 1.7841 17.1092 2.05598 17.1092Z" fill="#F8F8F8"/>
<path d="M8.23582 23.9892C8.03037 23.99 7.83318 23.9084 7.68831 23.7627L6.61213 22.6865C6.50985 22.5877 6.46883 22.4414 6.50484 22.3039C6.54084 22.1663 6.64827 22.0589 6.78583 22.0229C6.92339 21.9869 7.06967 22.0279 7.16845 22.1302L8.24507 23.2065L11.7249 19.7084L10.6487 18.65C10.4991 18.4957 10.5009 18.2499 10.6529 18.0979C10.8049 17.9459 11.0508 17.944 11.2051 18.0937L12.2813 19.1699C12.583 19.4724 12.583 19.9621 12.2813 20.2646L8.78294 23.7629C8.6382 23.9085 8.44113 23.99 8.23582 23.9892Z" fill="#F8F8F8"/>
<path d="M14.156 18.069C13.9506 18.0697 13.7534 17.9881 13.6085 17.8425L12.5323 16.7663C12.3836 16.6119 12.386 16.3669 12.5375 16.2153C12.689 16.0637 12.934 16.0613 13.0885 16.2098L14.165 17.2862L23.0268 8.4062L21.9505 7.34803C21.8002 7.19384 21.8018 6.94744 21.954 6.79517C22.1063 6.64289 22.3527 6.64133 22.5069 6.79167L23.5829 7.86805C23.8848 8.17063 23.8846 8.66053 23.5826 8.96292L14.7029 17.8426C14.5582 17.9882 14.3613 18.0697 14.156 18.069Z" fill="#F8F8F8"/>
<path d="M9.58134 22.8016C9.47698 22.8017 9.37687 22.7602 9.30318 22.6863L7.95761 21.341C7.80793 21.1867 7.80979 20.9408 7.96178 20.7888C8.11378 20.6368 8.35963 20.6349 8.51393 20.7846L9.85951 22.1302C9.972 22.2427 10.0056 22.4119 9.94475 22.5589C9.88386 22.7059 9.74042 22.8018 9.5813 22.8018L9.58134 22.8016Z" fill="#F8F8F8"/>
<path d="M10.9269 21.4562C10.8225 21.4563 10.7224 21.4148 10.6487 21.3409L9.30311 19.9954C9.14949 19.8417 9.14954 19.5925 9.30323 19.4389C9.45692 19.2853 9.70605 19.2853 9.85967 19.439L11.2052 20.7846C11.3178 20.8971 11.3514 21.0663 11.2905 21.2134C11.2296 21.3604 11.0862 21.4562 10.9271 21.4562L10.9269 21.4562Z" fill="#F8F8F8"/>
<path d="M15.5014 16.8815C15.397 16.8817 15.2969 16.8402 15.2232 16.7663L13.8777 15.4209C13.7286 15.2665 13.7307 15.0211 13.8824 14.8694C14.0342 14.7176 14.2796 14.7155 14.434 14.8646L15.7795 16.2099C15.892 16.3224 15.9257 16.4916 15.8648 16.6386C15.8039 16.7856 15.6605 16.8815 15.5014 16.8815Z" fill="#F8F8F8"/>
<path d="M16.847 15.5362C16.7426 15.5363 16.6425 15.4948 16.5688 15.4209L15.2232 14.0753C15.0736 13.9211 15.0754 13.6752 15.2274 13.5232C15.3794 13.3712 15.6253 13.3693 15.7796 13.519L17.1251 14.8646C17.2376 14.9771 17.2713 15.1463 17.2104 15.2933C17.1495 15.4403 17.006 15.5361 16.8469 15.5362L16.847 15.5362Z" fill="#F8F8F8"/>
<path d="M18.1926 14.1907C18.0882 14.1908 17.988 14.1494 17.9143 14.0754L16.5688 12.7301C16.4184 12.5759 16.42 12.3295 16.5723 12.1772C16.7245 12.025 16.9709 12.0234 17.1251 12.1737L18.4707 13.5191C18.5832 13.6316 18.6169 13.8008 18.556 13.9478C18.4951 14.0948 18.3517 14.1907 18.1926 14.1907Z" fill="#F8F8F8"/>
<path d="M19.5376 12.8454C19.4333 12.8455 19.3332 12.8041 19.2595 12.7302L17.9143 11.3846C17.8124 11.2857 17.7716 11.1396 17.8077 11.0023C17.8438 10.8649 17.951 10.7577 18.0884 10.7216C18.2257 10.6856 18.3718 10.7263 18.4707 10.8283L19.8158 12.1738C19.9283 12.2864 19.9619 12.4556 19.901 12.6026C19.8402 12.7495 19.6967 12.8454 19.5376 12.8454V12.8454Z" fill="#F8F8F8"/>
<path d="M20.8832 11.4998C20.7788 11.5 20.6787 11.4585 20.605 11.3846L19.2595 10.039C19.1572 9.94022 19.1162 9.79393 19.1522 9.65637C19.1882 9.51882 19.2956 9.41139 19.4332 9.37538C19.5707 9.33938 19.717 9.38039 19.8158 9.48267L21.1614 10.8282C21.2739 10.9408 21.3075 11.11 21.2466 11.257C21.1857 11.404 21.0423 11.4998 20.8832 11.4998H20.8832Z" fill="#F8F8F8"/>
<path d="M22.2288 10.1544C22.1244 10.1545 22.0243 10.113 21.9506 10.0391L20.605 8.69374C20.4547 8.53955 20.4562 8.29315 20.6085 8.14087C20.7608 7.9886 21.0072 7.98704 21.1614 8.13737L22.507 9.48295C22.6194 9.59547 22.6531 9.76468 22.5922 9.91168C22.5313 10.0587 22.3879 10.1545 22.2288 10.1546V10.1544Z" fill="#F8F8F8"/>
<path d="M6.89026 19.9476C6.68156 19.948 6.48133 19.8652 6.33389 19.7174L3.66128 17.0447C3.35428 16.7373 3.35428 16.2393 3.66128 15.9318L5.52667 14.0664C5.83404 13.7594 6.33199 13.7594 6.63936 14.0664L9.31202 16.739C9.61899 17.0465 9.61899 17.5445 9.31202 17.8519L7.44663 19.7173C7.29921 19.8651 7.09897 19.948 6.89026 19.9476ZM6.08299 14.6228L4.21772 16.4881L6.89038 19.161L8.75616 17.2952L6.08299 14.6228Z" fill="#F8F8F8"/>
<path d="M10.3886 16.4491C10.1799 16.4495 9.97977 16.3668 9.83219 16.2193L7.15957 13.5462C6.85257 13.2389 6.85257 12.7409 7.15957 12.4336L9.02496 10.5681C9.33235 10.2611 9.83028 10.2611 10.1377 10.5681L12.8103 13.2408C12.9579 13.3883 13.0408 13.5884 13.0408 13.7971C13.0408 14.0058 12.9579 14.2059 12.8103 14.3535L10.9449 16.2191C10.7974 16.3667 10.5972 16.4494 10.3886 16.4491ZM9.58129 11.1246L7.7159 12.99L10.3886 15.6628L12.254 13.7972V13.797L12.2543 13.7966L9.58129 11.1246Z" fill="#F8F8F8"/>
<path d="M13.8869 12.951C13.6782 12.9514 13.478 12.8685 13.3305 12.7208L10.6575 10.0482C10.3514 9.74059 10.3512 9.24348 10.6571 8.93566L12.5233 7.06988C12.6702 6.92186 12.8703 6.83884 13.0788 6.83936H13.0796C13.2884 6.83879 13.4887 6.9218 13.636 7.06988L16.3086 9.74273C16.4562 9.89026 16.5391 10.0904 16.5391 10.2991C16.5391 10.5078 16.4562 10.7079 16.3086 10.8554L14.4433 12.7208C14.2958 12.8685 14.0956 12.9514 13.8869 12.951ZM13.0796 7.62624L11.2139 9.49163L13.8869 12.1645L15.7527 10.2987L13.0796 7.62624Z" fill="#F8F8F8"/>
<path d="M17.3849 9.45273C17.1763 9.45302 16.9761 9.37035 16.8286 9.22296L14.1561 6.54995C13.8491 6.24257 13.8491 5.74461 14.1561 5.43722L16.0215 3.57183C16.1687 3.42375 16.369 3.34074 16.5778 3.34131H16.5786C16.7873 3.34082 16.9876 3.42399 17.1346 3.57222L19.8072 6.24449C19.9548 6.39201 20.0378 6.59215 20.0378 6.80083C20.0378 7.00952 19.9548 7.20965 19.8072 7.35718L17.9418 9.22277C17.7942 9.37047 17.5937 9.45323 17.3849 9.45273ZM16.5777 4.1282L14.7123 5.99359L17.3849 8.66644L19.2507 6.80085L19.2511 6.80046L16.5777 4.1282Z" fill="#F8F8F8"/>
</svg>
