<svg width="24" height="24" viewBox="0 0 24 24" fill="none" xmlns="http://www.w3.org/2000/svg">
<path d="M16.5334 23.25C16.9222 23.2496 17.295 23.095 17.57 22.82C17.845 22.545 17.9996 22.1722 18 21.7834V2.21662C17.9996 1.82777 17.845 1.45496 17.57 1.18C17.295 0.905044 16.9222 0.750397 16.5334 0.75H7.46662C7.07777 0.750397 6.70496 0.905044 6.43 1.18C6.15504 1.45496 6.0004 1.82777 6 2.21662V21.7834C6.0004 22.1722 6.15504 22.545 6.43 22.82C6.70496 23.095 7.07777 23.2496 7.46662 23.25H16.5334ZM6.75 21.7834V2.21662C6.7502 2.02663 6.82576 1.84446 6.96011 1.71011C7.09446 1.57576 7.27662 1.5002 7.46662 1.5H16.5334C16.7234 1.5002 16.9055 1.57576 17.0399 1.71011C17.1742 1.84446 17.2498 2.02663 17.25 2.21662V21.7834C17.2498 21.9734 17.1742 22.1555 17.0399 22.2899C16.9055 22.4242 16.7234 22.4998 16.5334 22.5H7.46662C7.27662 22.4998 7.09446 22.4242 6.96011 22.2899C6.82576 22.1555 6.7502 21.9734 6.75 21.7834Z" fill="#F8F8F8"/>
<path d="M7.875 7.5H16.125C16.2245 7.5 16.3198 7.46049 16.3902 7.39017C16.4605 7.31984 16.5 7.22446 16.5 7.125V2.625C16.5 2.52554 16.4605 2.43016 16.3902 2.35984C16.3198 2.28951 16.2245 2.25 16.125 2.25H7.875C7.77554 2.25 7.68016 2.28951 7.60983 2.35984C7.53951 2.43016 7.5 2.52554 7.5 2.625V7.125C7.5 7.22446 7.53951 7.31984 7.60983 7.39017C7.68016 7.46049 7.77554 7.5 7.875 7.5ZM15.75 6.75H8.25V5.25H15.75V6.75ZM8.25 3H15.75V4.5H8.25V3Z" fill="#F8F8F8"/>
<path d="M13.3125 14.9763L12.9375 15.6254C13.2949 15.8318 13.5743 16.1504 13.7323 16.5317C13.8902 16.913 13.9179 17.3358 13.8111 17.7345C13.7043 18.1332 13.4689 18.4855 13.1414 18.7368C12.814 18.988 12.4127 19.1242 12 19.1242C11.5872 19.1242 11.186 18.988 10.8586 18.7368C10.5311 18.4855 10.2957 18.1332 10.1889 17.7345C10.0821 17.3358 10.1098 16.913 10.2677 16.5317C10.4257 16.1504 10.705 15.8318 11.0625 15.6254L10.6875 14.9763C10.1871 15.2652 9.79595 15.7112 9.57482 16.2451C9.35368 16.779 9.31489 17.3709 9.46445 17.929C9.614 18.4872 9.94356 18.9804 10.402 19.3322C10.8604 19.684 11.4221 19.8746 12 19.8746C12.5778 19.8746 13.1395 19.684 13.598 19.3322C14.0564 18.9804 14.386 18.4872 14.5355 17.929C14.6851 17.3709 14.6463 16.779 14.4252 16.2451C14.204 15.7112 13.8129 15.2652 13.3125 14.9763Z" fill="#F8F8F8"/>
<path d="M11.625 13.875H12.375V17.25H11.625V13.875Z" fill="#F8F8F8"/>
<path d="M10.125 21H11.25V21.75H10.125V21Z" fill="#F8F8F8"/>
<path d="M12.75 21H13.875V21.75H12.75V21Z" fill="#F8F8F8"/>
<path d="M12 8.25C11.6684 8.25124 11.3466 8.36232 11.0848 8.56586C10.8231 8.76941 10.6361 9.05395 10.5533 9.375H8.625V10.125H10.5533C10.6351 10.4466 10.8218 10.7317 11.0838 10.9354C11.3458 11.1391 11.6682 11.2496 12 11.2496C12.3318 11.2496 12.6542 11.1391 12.9162 10.9354C13.1782 10.7317 13.3649 10.4466 13.4468 10.125H15.375V9.375H13.4468C13.3639 9.05395 13.1769 8.76941 12.9152 8.56586C12.6534 8.36232 12.3316 8.25124 12 8.25ZM12 10.5C11.8517 10.5 11.7067 10.456 11.5833 10.3736C11.46 10.2912 11.3639 10.1741 11.3071 10.037C11.2503 9.89997 11.2355 9.74917 11.2644 9.60368C11.2933 9.4582 11.3648 9.32456 11.4697 9.21967C11.5746 9.11478 11.7082 9.04335 11.8537 9.01441C11.9992 8.98547 12.15 9.00032 12.287 9.05709C12.4241 9.11386 12.5412 9.20999 12.6236 9.33332C12.706 9.45666 12.75 9.60166 12.75 9.75C12.75 9.94891 12.671 10.1397 12.5303 10.2803C12.3897 10.421 12.1989 10.5 12 10.5Z" fill="#F8F8F8"/>
</svg>
