<svg width="24" height="24" viewBox="0 0 24 24" fill="none" xmlns="http://www.w3.org/2000/svg">
<g clip-path="url(#clip0)">
<path d="M18.3863 2.25C18.5933 2.25 18.7613 2.08237 18.7613 1.875C18.7613 1.66763 18.5933 1.5 18.3863 1.5H18.3825C18.1755 1.5 18.0098 1.66763 18.0098 1.875C18.0098 2.08237 18.1793 2.25 18.3863 2.25Z" fill="#F8F8F8"/>
<path d="M5.63626 2.25C5.84326 2.25 6.01126 2.08237 6.01126 1.875C6.01126 1.66763 5.84326 1.5 5.63626 1.5H5.63251C5.42551 1.5 5.25977 1.66763 5.25977 1.875C5.25977 2.08237 5.42926 2.25 5.63626 2.25Z" fill="#F8F8F8"/>
<path d="M18.3863 21.0183C18.5933 21.0183 18.7613 20.8507 18.7613 20.6433C18.7613 20.4359 18.5933 20.2683 18.3863 20.2683H18.3825C18.1755 20.2683 18.0098 20.4359 18.0098 20.6433C18.0098 20.8507 18.1793 21.0183 18.3863 21.0183Z" fill="#F8F8F8"/>
<path d="M5.63626 21.0183C5.84326 21.0183 6.01126 20.8507 6.01126 20.6433C6.01126 20.4359 5.84326 20.2683 5.63626 20.2683H5.63251C5.42551 20.2683 5.25977 20.4359 5.25977 20.6433C5.25977 20.8507 5.42926 21.0183 5.63626 21.0183Z" fill="#F8F8F8"/>
<path d="M5.625 24H18.375C19.4089 24 20.25 23.1589 20.25 22.125V20.6246V3.37538V1.875C20.25 0.841125 19.4089 0 18.375 0H5.625C4.59113 0 3.75 0.841125 3.75 1.875V3.37538V20.6246V22.125C3.75 23.1589 4.59113 24 5.625 24ZM18.375 23.25H5.625C5.00475 23.25 4.5 22.7453 4.5 22.125V22.1152C4.81425 22.3534 5.20125 22.4996 5.625 22.4996H18.375C18.7987 22.4996 19.1858 22.353 19.5 22.1152V22.125C19.5 22.7453 18.9952 23.25 18.375 23.25ZM9.37387 21.0004H9.74963C9.74963 21.2078 9.91725 21.3754 10.1246 21.3754C10.332 21.3754 10.4996 21.2078 10.4996 21.0004H10.8727V21.7496H9.37387V21.0004ZM11.9996 21.0004C11.9996 21.2078 12.1673 21.3754 12.3746 21.3754C12.582 21.3754 12.7496 21.2078 12.7496 21.0004H13.1246C13.1246 21.2078 13.2923 21.3754 13.4996 21.3754C13.707 21.3754 13.8746 21.2078 13.8746 21.0004H14.2496C14.2496 21.2078 14.4173 21.3754 14.6246 21.3754C14.832 21.3754 14.9996 21.2078 14.9996 21.0004H15.3746C15.3746 21.2078 15.5423 21.3754 15.7496 21.3754C15.957 21.3754 16.1246 21.2078 16.1246 21.0004H16.5V21.7496H11.6227V21.0004H11.9996ZM4.5 1.875C4.5 1.25475 5.00475 0.75 5.625 0.75H18.375C18.9952 0.75 19.5 1.25475 19.5 1.875V3.37538V20.6246C19.5 21.2449 18.9952 21.7496 18.375 21.7496H17.25V20.6254C17.25 20.418 17.0824 20.2504 16.875 20.2504H8.99887C8.7915 20.2504 8.62387 20.418 8.62387 20.6254V21.7496H5.625C5.00475 21.7496 4.5 21.2449 4.5 20.6246V3.37538V1.875Z" fill="#F8F8F8"/>
<path d="M8.24847 13.1292C7.83485 13.1292 7.49847 12.7928 7.49847 12.3792C7.49847 12.1718 7.33085 12.0042 7.12347 12.0042C6.9161 12.0042 6.74847 12.1718 6.74847 12.3792C6.74847 13.2064 7.42122 13.8792 8.24847 13.8792C9.07572 13.8792 9.74847 13.2064 9.74847 12.3792C9.74847 11.5939 8.9951 10.9095 8.33097 10.3058C8.01972 10.023 7.49847 9.54942 7.49847 9.37842C7.49847 8.9648 7.83485 8.62842 8.24847 8.62842C8.6621 8.62842 8.99847 8.9648 8.99847 9.37842C8.99847 9.5858 9.1661 9.75342 9.37347 9.75342C9.58085 9.75342 9.74847 9.5858 9.74847 9.37842C9.74847 8.55117 9.07572 7.87842 8.24847 7.87842C7.42122 7.87842 6.74847 8.55117 6.74847 9.37842C6.74847 9.88167 7.24797 10.3354 7.82622 10.8608C8.3486 11.3356 8.99847 11.9258 8.99847 12.3792C8.99847 12.7924 8.6621 13.1292 8.24847 13.1292Z" fill="#F8F8F8"/>
<path d="M12.0004 13.1292C11.5867 13.1292 11.2504 12.7928 11.2504 12.3792C11.2504 12.1718 11.0827 12.0042 10.8754 12.0042C10.668 12.0042 10.5004 12.1718 10.5004 12.3792C10.5004 13.2064 11.1731 13.8792 12.0004 13.8792C12.8276 13.8792 13.5004 13.2064 13.5004 12.3792C13.5004 11.5939 12.747 10.9095 12.0829 10.3058C11.7716 10.023 11.2504 9.54942 11.2504 9.37842C11.2504 8.9648 11.5867 8.62842 12.0004 8.62842C12.414 8.62842 12.7504 8.9648 12.7504 9.37842C12.7504 9.5858 12.918 9.75342 13.1254 9.75342C13.3327 9.75342 13.5004 9.5858 13.5004 9.37842C13.5004 8.55117 12.8276 7.87842 12.0004 7.87842C11.1731 7.87842 10.5004 8.55117 10.5004 9.37842C10.5004 9.88167 10.9999 10.3354 11.5781 10.8608C12.1005 11.3356 12.7504 11.9258 12.7504 12.3792C12.7504 12.7924 12.414 13.1292 12.0004 13.1292Z" fill="#F8F8F8"/>
<path d="M14.6254 13.8792H15.7504C16.5776 13.8792 17.2504 13.2064 17.2504 12.3792V9.37842C17.2504 8.55117 16.5776 7.87842 15.7504 7.87842H14.6254C14.418 7.87842 14.2504 8.04604 14.2504 8.25342V13.5042C14.2504 13.7112 14.418 13.8792 14.6254 13.8792ZM16.5004 9.37842V12.3792C16.5004 12.7928 16.164 13.1292 15.7504 13.1292H15.0004V8.62842H15.7504C16.164 8.62842 16.5004 8.9648 16.5004 9.37842Z" fill="#F8F8F8"/>
</g>
<defs>
<clipPath id="clip0">
<rect width="24" height="24" fill="white"/>
</clipPath>
</defs>
</svg>
